PathFileType	4	(X/Y/Z)	/Users/niels/Desktop/University/Third Semester/Perception and Action/Exam/Gymnastics Motion Tracking/Code for Gym Tracking/Analyzed Data/Webcam_Backflip/id2000_1_baseline_Sports2D/id2000_1_baseline_Sports2D_px_person00.trc
DataRate	CameraRate	NumFrames	NumMarkers	Units	OrigDataRate	OrigDataStartFrame	OrigNumFrames
29.88372093023256	29.88372093023256	7	22	m	29.88372093023256	64	258
Frame#	Time	Hip			RHip			RKnee			RAnkle			RBigToe			RSmallToe			RHeel			LHip			LKnee			LAnkle			LBigToe			LSmallToe			LHeel			Neck			Head			Nose			RShoulder			RElbow			RWrist			LShoulder			LElbow			LWrist		
		X1	Y1	Z1	X2	Y2	Z2	X3	Y3	Z3	X4	Y4	Z4	X5	Y5	Z5	X6	Y6	Z6	X7	Y7	Z7	X8	Y8	Z8	X9	Y9	Z9	X10	Y10	Z10	X11	Y11	Z11	X12	Y12	Z12	X13	Y13	Z13	X14	Y14	Z14	X15	Y15	Z15	X16	Y16	Z16	X17	Y17	Z17	X18	Y18	Z18	X19	Y19	Z19	X20	Y20	Z20	X21	Y21	Z21	X22	Y22	Z22
64	2.141634241245136	1.0459609915655226	-0.4739294909913294	0.0	1.0243624000004032	-0.478700560400302	0.0	1.039042107094266	-0.8622911667406468	0.0	1.0071809849185025	-1.0701582994169814	0.0	1.1425766260820236	-1.115505697473685	0.0	1.1390137482625893	-1.1309921734765396	0.0	0.9720378698299622	-1.0776340343589086	0.0	1.0813350749118373	-0.4878861324770795	0.0	1.0703742688081381	-0.8492002080329918	0.0	1.069185794395278	-1.0420266684696358	0.0	1.1826557204520673	-1.0693593127946288	0.0	1.1586915445913764	-1.055945547135185	0.0	1.0293428197801504	-1.059312602836619	0.0	1.0545103740113966	-0.03181842012491791	0.0	1.1993895375742525	-0.06134950248517035	0.0	1.1959405936358594	0.006126512721138782	0.0	0.9976204322191111	-0.01672536077644018	0.0	1.264615741702432	-0.05579293475897417	0.0	1.4934376758829517	-0.05435616272307664	0.0	1.090020103450604	-0.0660933879148914	0.0	1.2532016511967885	-0.1377875392751875	0.0	1.4597042367547426	-0.09512938442134865	0.0
65	2.1750972762645913	1.044442210507077	-0.47383380631043304	0.0	1.0237499968828458	-0.4798222356678748	0.0	1.0400973030660368	-0.863465014550258	0.0	1.0084414551748941	-1.0710547640485377	0.0	1.1527449658754114	-1.1426961270516183	0.0	1.140739754871365	-1.1484156502591067	0.0	0.976707423012132	-1.079359228662799	0.0	1.0799143603560104	-0.4879162749012868	0.0	1.0741905699381513	-0.8485037631467747	0.0	1.0703775227196732	-1.0431006766450046	0.0	1.1860026823559269	-1.0733913852190107	0.0	1.1636813803757298	-1.059648882568165	0.0	1.0357633044562262	-1.0610133406526365	0.0	1.0476801132194413	-0.03224131555883019	0.0	1.2004337771010396	-0.062397958972968716	0.0	1.1833195581887528	0.008709210961837853	0.0	0.9958689266972008	-0.018114918952380397	0.0	1.2638102874507056	-0.045341105041693974	0.0	1.4764458665732825	-0.03463813660438977	0.0	1.085354666735635	-0.06660814559987482	0.0	1.247775895573335	-0.12182680255530091	0.0	1.444633362344807	-0.07140291984968934	0.0
66	2.208560311284047	1.0427642347260677	-0.47361448872162826	0.0	1.0236824580390387	-0.48059440049323365	0.0	1.0414517503759277	-0.8656324197207537	0.0	1.010230022519084	-1.0723277912644025	0.0	1.1632069708283383	-1.1687974019942549	0.0	1.1454462545498103	-1.1675378494319695	0.0	0.9832268879546632	-1.080276927806638	0.0	1.0779142687968633	-0.48788470196929545	0.0	1.076821199727354	-0.8492480879858735	0.0	1.0722908270763247	-1.0444051731041586	0.0	1.1883013718594702	-1.076875277496099	0.0	1.1676767006966133	-1.0624670094840587	0.0	1.0424478463907376	-1.062743977662597	0.0	1.0415501555592959	-0.033330393061998136	0.0	1.2012787350786032	-0.0635106610327807	0.0	1.1715378702591837	0.013971488588981429	0.0	0.9951318364113405	-0.019785214556246038	0.0	1.2633995619263483	-0.039362342904034314	0.0	1.456006481292198	-0.02142663546914107	0.0	1.078792442455244	-0.06615061063983571	0.0	1.240002639960779	-0.10784280113651802	0.0	1.4246792351668824	-0.053018769930801575	0.0
67	2.242023346303502	1.041226262190366	-0.47321088877185535	0.0	1.024542126491691	-0.4808126752958579	0.0	1.0433182988308494	-0.8680564867165784	0.0	1.0121093427544103	-1.0737792563182038	0.0	1.1712313879178151	-1.1870686980498393	0.0	1.1491111475185674	-1.1837467102242225	0.0	0.9901725873381649	-1.0802634742804968	0.0	1.0751425802878714	-0.4876544745377231	0.0	1.0777452663367557	-0.8507866764826726	0.0	1.07461385900179	-1.0453932228168052	0.0	1.1889947609492886	-1.0787621483606702	0.0	1.1697769596318888	-1.0636352340333537	0.0	1.0481339119180022	-1.0639781992431474	0.0	1.0364731164983627	-0.03501382959340965	0.0	1.2010904649849858	-0.06405866764730045	0.0	1.1617208146447513	0.01954661362519171	0.0	0.9954703723215177	-0.021571004463400826	0.0	1.2658059263977262	-0.03600210432738569	0.0	1.4338147165123487	-0.013357577249350506	0.0	1.0696536697031729	-0.06523925982425757	0.0	1.230555222938605	-0.09578430729524776	0.0	1.400843589904412	-0.04040386417490439	0.0
68	2.275486381322957	1.039924790141388	-0.47279076563207617	0.0	1.0263730619065272	-0.48067925583693105	0.0	1.0457830460413349	-0.8696700123921962	0.0	1.0135781941658615	-1.0750541829768634	0.0	1.1751516586682091	-1.1955133712915915	0.0	1.1492987913626778	-1.1947949049958804	0.0	0.9956573444058535	-1.0793536271819544	0.0	1.0712216744096008	-0.4873631290826714	0.0	1.0772897332022406	-0.8520462319544232	0.0	1.0770671558662148	-1.0454839502848587	0.0	1.1884065009857954	-1.078657361300805	0.0	1.1700769944709155	-1.0631115101205426	0.0	1.0521794768167687	-1.0642220734207952	0.0	1.0326749922793308	-0.037506268541427606	0.0	1.1985249743518545	-0.06288617682128651	0.0	1.1540880363499506	0.021154552095898827	0.0	0.9967006553662237	-0.023252006176716526	0.0	1.2720207418753118	-0.033630368726673424	0.0	1.4103702005240615	-0.009446036126356826	0.0	1.0579699508934686	-0.06440866333481608	0.0	1.2200204046383905	-0.08599203957849881	0.0	1.373813014725407	-0.03363561498968128	0.0
69	2.3089494163424122	1.038918714457341	-0.47251819603455336	0.0	1.0289657202772131	-0.4803989720094012	0.0	1.0488938670344619	-0.8697158327603826	0.0	1.014363651777436	-1.075885254947155	0.0	1.1744039272019042	-1.195232907599013	0.0	1.1451342409891563	-1.2009836000216	0.0	0.998297302226792	-1.077672593548655	0.0	1.065834439984793	-0.4870929283410459	0.0	1.0760909719758327	-0.8523125161986175	0.0	1.0795834596738079	-1.0444997277135473	0.0	1.1870167254438473	-1.0767107722261569	0.0	1.169026736159547	-1.061290415408538	0.0	1.054427577278675	-1.063408962914143	0.0	1.0301467498319627	-0.041242413685647406	0.0	1.1918799449471864	-0.058315797880522054	0.0	1.1483358798217804	0.016324010622796148	0.0	0.9984501786787214	-0.024674011477755664	0.0	1.280852726453519	-0.03130920378690298	0.0	1.386224420244361	-0.008702029150979056	0.0	1.0447819284133921	-0.06438727251614805	0.0	1.2086132804999965	-0.07886615344161299	0.0	1.3447273738016645	-0.03199216505670634	0.0
70	2.342412451361868	1.0383258645961446	-0.4724901065296604	0.0	1.0319987284346588	-0.4800608951655138	0.0	1.052695358396815	-0.8682129376491761	0.0	1.0146617771742221	-1.0762189138211735	0.0	1.1698661289543069	-1.1888158135299862	0.0	1.1367132974441094	-1.2037321696841783	0.0	0.9978660158885541	-1.0753793643493796	0.0	1.0590268361485538	-0.48684794529512476	0.0	1.0747873299647408	-0.8515559984694075	0.0	1.082438472824897	-1.0428232307875172	0.0	1.1852707600184187	-1.0735476241914994	0.0	1.1672304518008743	-1.058758118886097	0.0	1.055351788975922	-1.061961434071312	0.0	1.0286425664262555	-0.046218381859411406	0.0	1.1796973074749602	-0.0485032527105261	0.0	1.1441007915459518	0.007200590085582743	0.0	1.0001925617850562	-0.02577248328346554	0.0	1.2895700198654119	-0.02891161735143246	0.0	1.3633077239742313	-0.009609244046775406	0.0	1.0318574464351644	-0.06562483663539817	0.0	1.1968150866868383	-0.07451000704768257	0.0	1.3160001250232158	-0.03385219563894287	0.0
